# xmcd CD database file
#
# Track frame offsets:
#	150
#	36289
#	64493
#	86658
#	108682
#	136245
#	167289
#	195166
#	211107
#	236553
#	256555
#
# Disc length: 3719 seconds
#
# Revision: 0
# Processed by: cddbd v1.5.1PL2 Copyright (c) Steve Scherf et al.
# Submitted via: CDex 1.51
#
DISCID=8b0e850b
DTITLE=Kenny Drew - a Passage in Jazz Vol.1
DYEAR=2003
DGENRE=Jazz
TTITLE0=Impressions
TTITLE1=Evening In The Park
TTITLE2=Cafe Flore
TTITLE3=Autumn In Rome
TTITLE4=Cathedral In Milan
TTITLE5=Oboe Concerto in D Minor
TTITLE6=Anastasia
TTITLE7=Sorrento
TTITLE8=Cleopatra's Dream
TTITLE9=The Summer Knows
TTITLE10=Sunset
EXTD=YEAR: 2003
EXTT0=
EXTT1=
EXTT2=
EXTT3=
EXTT4=
EXTT5=
EXTT6=
EXTT7=
EXTT8=
EXTT9=
EXTT10=
PLAYORDER=
